<svg width="237" height="46" viewBox="0 0 237 46" fill="none" xmlns="http://www.w3.org/2000/svg">
    <path fill-rule="evenodd" clip-rule="evenodd"
        d="M62.126 23C62.126 25.2167 62.5879 26.9621 63.5115 28.2355C64.4344 29.5097 65.9084 30.1468 67.9327 30.1468C68.7773 30.1468 69.5483 30.0692 70.2458 29.9141C70.9432 29.7581 71.528 29.5675 72 29.3389V33.0369C71.4693 33.306 70.8204 33.5337 70.0548 33.7202C69.2885 33.9067 68.3155 34 67.1366 34C65.6039 34 64.263 33.7409 63.1131 33.2234C61.964 32.7052 61.0106 31.9698 60.2544 31.0167C59.4975 30.0643 58.9323 28.9089 58.5597 27.5522C58.1863 26.1954 58 24.6778 58 23C58 21.3222 58.1863 19.8046 58.5597 18.4478C58.9323 17.0911 59.4975 15.9357 60.2544 14.9833C61.0106 14.0302 61.964 13.2948 63.1131 12.7766C64.263 12.2591 65.6039 12 67.1366 12C68.3155 12 69.2885 12.0933 70.0548 12.2798C70.8204 12.4663 71.4693 12.7048 72 12.9944V16.6916C71.528 16.4647 70.9432 16.2724 70.2458 16.1173C69.5483 15.9621 68.7773 15.8845 67.9327 15.8845C65.9084 15.8845 64.4344 16.5167 63.5115 17.7794C62.5879 19.0437 62.126 20.7833 62.126 23Z"
        fill="white" />
    <path fill-rule="evenodd" clip-rule="evenodd"
        d="M78.3491 34C77.0573 34 76.0683 33.703 75.3811 33.1089C74.6931 32.5148 74.3491 31.6033 74.3491 30.3743V18.1759H78.6981V29.3297C78.6981 29.7394 78.7985 30.0315 79 30.2053C79.2007 30.38 79.5337 30.4665 80 30.4665V33.7846C79.8516 33.8254 79.6931 33.8662 79.5236 33.9078C79.3541 33.9282 79.1745 33.9486 78.984 33.969C78.7934 33.9894 78.5818 34 78.3491 34ZM74 14.458C74 13.7814 74.2428 13.2037 74.7302 12.7222C75.2167 12.2407 75.8196 12 76.5396 12C77.2378 12 77.8356 12.2407 78.3331 12.7222C78.8297 13.2037 79.0793 13.7814 79.0793 14.458C79.0793 15.1336 78.8297 15.713 78.3331 16.1937C77.8356 16.6752 77.2378 16.9159 76.5396 16.9159C75.8196 16.9159 75.2167 16.6752 74.7302 16.1937C74.2428 15.713 74 15.1336 74 14.458Z"
        fill="white" />
    <path fill-rule="evenodd" clip-rule="evenodd"
        d="M90.8203 33.6114C90.5404 33.7107 90.1865 33.8005 89.758 33.8808C89.3278 33.9603 88.8244 34 88.2455 34C86.7077 34 85.476 33.6416 84.548 32.9232C83.6193 32.2048 83.1557 30.9786 83.1557 29.243V21.9717H81V18.5904H83.1557V15H87.2572V18.5904H91V21.9717H87.2572V28.7639C87.2572 29.3622 87.4416 29.8112 87.8114 30.1108C88.1803 30.4096 88.7044 30.559 89.3834 30.559C89.6625 30.559 89.952 30.5344 90.2517 30.4843C90.5507 30.4351 90.74 30.4001 90.8203 30.3794V33.6114Z"
        fill="white" />
    <path fill-rule="evenodd" clip-rule="evenodd"
        d="M95.9104 38L97.948 32.6972L93 18H97.1913L100.014 27.7879L102.809 18H107L102.11 32.7576L100.509 38H95.9104Z"
        fill="white" />
    <path fill-rule="evenodd" clip-rule="evenodd"
        d="M117.187 25.9847C117.187 27.5375 117.437 28.6766 117.937 29.4028C118.435 30.1281 119.124 30.4912 120 30.4912C120.876 30.4912 121.559 30.1281 122.048 29.4028C122.537 28.6766 122.782 27.5375 122.782 25.9847C122.782 24.432 122.537 23.2929 122.048 22.5667C121.559 21.8413 120.876 21.4783 120 21.4783C119.124 21.4783 118.435 21.8413 117.937 22.5667C117.437 23.2929 117.187 24.432 117.187 25.9847ZM127 25.9847C127 28.646 126.373 30.6479 125.12 31.9886C123.866 33.3301 122.16 34 120 34C117.839 34 116.133 33.3301 114.879 31.9886C113.627 30.6479 113 28.646 113 25.9847C113 23.3435 113.627 21.3521 114.879 20.0114C116.133 18.6699 117.839 18 120 18C122.16 18 123.866 18.6699 125.12 20.0114C126.373 21.3521 127 23.3435 127 25.9847Z"
        fill="white" />
    <path fill-rule="evenodd" clip-rule="evenodd"
        d="M131.136 33V21.0753H129V17.5933H131.136V16.1457C131.136 14.5638 131.542 13.311 132.353 12.3863C133.164 11.4624 134.49 11 136.329 11C137.061 11 137.654 11.0614 138.109 11.1849C138.564 11.3077 138.861 11.3903 139 11.4313V14.7897C138.861 14.7488 138.649 14.6972 138.362 14.6358C138.075 14.5745 137.714 14.5434 137.279 14.5434C136.626 14.5434 136.116 14.7128 135.751 15.0516C135.384 15.3912 135.201 15.8372 135.201 16.392V17.5933H138.614V21.0753H135.201V33H131.136Z"
        fill="white" />
    <path fill-rule="evenodd" clip-rule="evenodd"
        d="M146.123 28.8421C146.898 29.1532 147.785 29.4478 148.786 29.7276C149.785 30.0074 150.98 30.1476 152.367 30.1476C153.918 30.1476 155.02 29.919 155.673 29.4635C156.326 29.008 156.654 28.3345 156.654 27.4432C156.654 26.4909 156.367 25.8331 155.796 25.4709C155.224 25.1086 154.377 24.8445 153.255 24.6786C152.092 24.5333 151.056 24.3262 150.148 24.0572C149.24 23.7873 148.48 23.4151 147.867 22.9381C147.255 22.4619 146.791 21.8504 146.475 21.1044C146.158 20.3591 146 19.4472 146 18.3702C146 17.6044 146.133 16.8427 146.398 16.0867C146.663 15.3308 147.102 14.6466 147.715 14.0351C148.327 13.4244 149.138 12.9326 150.148 12.5595C151.159 12.1865 152.408 12 153.898 12C155.408 12 156.663 12.1296 157.663 12.3887C158.663 12.6478 159.459 12.9226 160.051 13.2123V16.879C159.316 16.5893 158.459 16.35 157.48 16.1643C156.5 15.9778 155.48 15.8845 154.419 15.8845C153.623 15.8845 152.959 15.9464 152.429 16.071C151.898 16.1948 151.475 16.3657 151.159 16.5835C150.841 16.8014 150.618 17.0605 150.485 17.3601C150.352 17.6605 150.286 17.9873 150.286 18.3389C150.286 19.1889 150.618 19.7839 151.28 20.1256C151.944 20.4681 152.827 20.7115 153.928 20.856C155.072 21.0012 156.082 21.2133 156.959 21.4931C157.837 21.7728 158.572 22.1615 159.163 22.6583C159.755 23.1552 160.209 23.7824 160.525 24.5383C160.842 25.2951 161 26.2111 161 27.2881C161 28.3246 160.842 29.2564 160.525 30.0849C160.209 30.9135 159.715 31.6183 159.041 32.1984C158.367 32.7786 157.5 33.2234 156.439 33.5345C155.378 33.8448 154.113 34 152.643 34C151.296 34 150.067 33.8605 148.954 33.5808C147.841 33.301 146.898 32.9338 146.123 32.4774V28.8421Z"
        fill="white" />
    <path fill-rule="evenodd" clip-rule="evenodd"
        d="M169.665 21.4783C168.847 21.4783 168.215 21.7353 167.767 22.2494C167.319 22.7635 167.054 23.505 166.975 24.4729H171.996C171.955 23.5451 171.742 22.8141 171.353 22.2799C170.965 21.7458 170.401 21.4783 169.665 21.4783ZM175.671 32.9115C175.054 33.2545 174.291 33.5212 173.386 33.7132C172.478 33.9044 171.507 34 170.472 34C168.021 34 166.163 33.3043 164.898 31.913C163.633 30.5217 163 28.5456 163 25.9847C163 23.4046 163.598 21.4277 164.793 20.0564C165.989 18.686 167.612 18 169.665 18C170.76 18 171.707 18.1968 172.504 18.5896C173.301 18.9824 173.958 19.5327 174.476 20.238C174.994 20.9441 175.377 21.7859 175.627 22.7635C175.875 23.7419 176 24.8159 176 25.9847V27.5576H167.005C167.084 28.4452 167.428 29.1561 168.036 29.6903C168.643 30.2245 169.594 30.492 170.89 30.492C171.786 30.492 172.633 30.4157 173.43 30.2647C174.227 30.1137 174.974 29.9072 175.671 29.6445V32.9115Z"
        fill="white" />
    <path fill-rule="evenodd" clip-rule="evenodd"
        d="M186.934 26.9527H184.382C183.551 26.9527 182.922 27.0941 182.497 27.376C182.071 27.6588 181.859 28.1424 181.859 28.8284C181.859 29.4734 182.052 29.9474 182.438 30.2494C182.823 30.5523 183.333 30.7033 183.966 30.7033C184.599 30.7033 185.168 30.6181 185.673 30.4462C186.177 30.2751 186.598 30.0679 186.934 29.8261V26.9527ZM187.884 33.5461L187.736 32.2761C187.142 32.7597 186.445 33.1686 185.643 33.5012C184.842 33.8337 183.917 34 182.868 34C181.285 34 180.078 33.5566 179.247 32.6689C178.416 31.7821 178 30.582 178 29.0702C178 27.4363 178.48 26.1968 179.44 25.3501C180.399 24.5027 181.918 24.0793 183.996 24.0793H186.934V23.6857C186.934 22.9804 186.726 22.4358 186.311 22.0526C185.895 21.6702 185.064 21.4783 183.817 21.4783C182.868 21.4783 181.948 21.5795 181.058 21.7803C180.167 21.9819 179.465 22.194 178.95 22.4157V19.0282C179.227 18.8876 179.573 18.7559 179.989 18.6354C180.404 18.5141 180.85 18.4081 181.325 18.3173C181.799 18.2265 182.294 18.151 182.808 18.0908C183.322 18.0305 183.817 18 184.293 18C185.578 18 186.652 18.1358 187.513 18.4081C188.374 18.6804 189.061 19.0636 189.576 19.5576C190.09 20.0516 190.455 20.642 190.674 21.3272C190.891 22.0125 191 22.7692 191 23.5957V33.5461H187.884Z"
        fill="white" />
    <path fill-rule="evenodd" clip-rule="evenodd"
        d="M202.82 33.6114C202.54 33.7107 202.187 33.8005 201.758 33.8808C201.328 33.9603 200.824 34 200.246 34C198.708 34 197.476 33.6416 196.548 32.9232C195.619 32.2048 195.156 30.9786 195.156 29.243V21.9717H193V18.5904H195.156V15H199.257V18.5904H203V21.9717H199.257V28.7639C199.257 29.3622 199.442 29.8112 199.811 30.1108C200.18 30.4096 200.704 30.559 201.383 30.559C201.663 30.559 201.952 30.5344 202.252 30.4843C202.551 30.4351 202.74 30.4001 202.82 30.3794V33.6114Z"
        fill="white" />
    <path fill-rule="evenodd" clip-rule="evenodd"
        d="M213.82 33.6114C213.54 33.7107 213.187 33.8005 212.757 33.8808C212.328 33.9603 211.824 34 211.246 34C209.708 34 208.476 33.6416 207.548 32.9232C206.619 32.2048 206.156 30.9786 206.156 29.243V21.9717H204V18.5904H206.156V15H210.257V18.5904H214V21.9717H210.257V28.7639C210.257 29.3622 210.442 29.8112 210.811 30.1108C211.18 30.4096 211.704 30.559 212.383 30.559C212.663 30.559 212.952 30.5344 213.252 30.4843C213.551 30.4351 213.74 30.4001 213.82 30.3794V33.6114Z"
        fill="white" />
    <path fill-rule="evenodd" clip-rule="evenodd"
        d="M220.247 34C218.876 34 217.825 33.7025 217.096 33.1076C216.365 32.5127 216 31.6 216 30.3693V12H220.618V29.3233C220.618 29.7335 220.724 30.0261 220.938 30.2001C221.151 30.375 221.505 30.4616 222 30.4616V33.7843C221.842 33.8251 221.674 33.866 221.494 33.9077C221.314 33.9281 221.124 33.9485 220.921 33.9689C220.719 33.9894 220.494 34 220.247 34Z"
        fill="white" />
    <mask id="mask0" mask-type="alpha" maskUnits="userSpaceOnUse" x="224" y="17" width="13" height="17">
        <path fill-rule="evenodd" clip-rule="evenodd" d="M224.092 17.2463H236.617V33.3704H224.092V17.2463Z"
            fill="white" />
    </mask>
    <g mask="url(#mask0)">
        <path fill-rule="evenodd" clip-rule="evenodd"
            d="M230.513 20.7515C229.726 20.7515 229.117 21.0105 228.685 21.5286C228.253 22.0467 227.998 22.7939 227.922 23.7694H232.759C232.72 22.8344 232.515 22.0977 232.14 21.5594C231.766 21.0211 231.223 20.7515 230.513 20.7515ZM236.301 32.2735C235.706 32.6191 234.971 32.8879 234.098 33.0814C233.224 33.274 232.288 33.3704 231.291 33.3704C228.93 33.3704 227.14 32.6693 225.921 31.2672C224.702 29.8651 224.092 27.8737 224.092 25.2929C224.092 22.6927 224.668 20.7005 225.82 19.3186C226.972 17.9376 228.536 17.2463 230.513 17.2463C231.569 17.2463 232.481 17.4446 233.249 17.8405C234.017 18.2363 234.65 18.7908 235.149 19.5016C235.648 20.2132 236.017 21.0615 236.258 22.0467C236.497 23.0327 236.617 24.1151 236.617 25.2929V26.878H227.951C228.027 27.7725 228.359 28.4889 228.944 29.0273C229.529 29.5656 230.445 29.8352 231.694 29.8352C232.558 29.8352 233.373 29.7583 234.141 29.6061C234.909 29.4539 235.629 29.2458 236.301 28.9811V32.2735Z"
            fill="white" />
    </g>
    <path fill-rule="evenodd" clip-rule="evenodd"
        d="M22.9996 1C10.8493 1 1 10.8496 1 22.9996C1 35.1496 10.8493 45 22.9996 45C35.1499 45 45 35.1496 45 22.9996C45 10.8496 35.1499 1 22.9996 1Z"
        fill="#00539B" />
    <path fill-rule="evenodd" clip-rule="evenodd"
        d="M44.9725 22.0279C44.2404 19.9758 43.3947 18.1431 41.9551 16.0409C39.3673 12.2586 36.4652 10.7065 36.4652 10.7065L36.4707 5.57546L36.0845 5.28219L35.7229 5.01992L35.2285 4.67817L34.6907 4.32927L34.2367 4.0519L33.8616 3.83413V42.1728L34.243 41.9447L34.6923 41.6753L35.3162 41.2668L36.0016 40.7843L36.4273 40.4609L36.4478 23.898C36.4478 23.898 37.9624 25.4931 38.8516 28.9964C39.86 32.9694 39.8782 36.9393 39.8782 36.9393C39.8829 36.9965 39.8869 37.0609 39.89 37.1308C39.8916 37.157 40.2604 36.6849 40.6868 36.1048C40.8811 35.8417 41.0864 35.5556 41.2759 35.283C41.6968 34.6758 42.0119 34.1234 42.0119 34.1083C42.0119 34.1083 42.2931 30.365 40.337 25.4835C38.6558 21.2903 36.4541 19.433 36.4541 19.433L36.4596 14.542C36.4865 14.5515 36.5149 14.5627 36.5457 14.5786C38.0232 15.3495 40.0282 17.7616 41.2317 19.952C43.4886 24.0617 44.2049 28.2803 44.2049 28.2803C44.2681 28.4885 44.2049 28.2803 44.2799 28.5974C44.2862 28.6236 44.5666 27.3433 44.5816 27.2717C44.6447 26.9817 44.7569 26.318 44.7932 25.9946C44.8595 25.4088 44.9259 24.8072 44.9559 24.3065C44.9962 23.6452 44.989 23.1588 44.993 23.1167C45.0159 22.8878 44.9756 22.0382 44.9725 22.0279ZM30.6215 2.33044L30.1493 2.16274L29.7284 2.02445L29.2143 1.86709L28.7089 1.72642V12.3938C28.7089 12.3938 26.6194 11.7571 24.7668 8.52881C23.2419 5.8727 23.4575 1.28691 23.4575 1L22.8249 1.00238L22.2319 1.01748L21.6507 1.04848L21.2621 1.07789L20.6154 1.23048C20.7741 5.06045 21.2953 8.25461 22.9221 10.7955C25.4317 14.7145 28.7089 15.4449 28.7089 15.4449V23.1112C25.7799 21.2983 21.3853 18.2249 19.1639 6.11034C18.867 4.49458 17.7528 4.49617 16.7767 4.86892C13.7222 6.03404 11.2623 9.5922 9.96252 10.7216C9.72877 10.925 9.48555 11.0315 9.39868 11.2533C9.31182 11.475 9.61742 11.7834 9.78879 11.9185C9.97752 12.0671 10.1844 12.0377 10.614 12.1847C11.3295 12.4303 12.0031 13.2044 12.5235 13.6042C13.0447 14.0024 14.2158 14.697 14.9099 14.8011C15.2424 14.9338 15.2281 15.0371 15.2139 15.2438C15.1997 15.4512 14.9976 15.599 14.6501 15.6427C14.3026 15.6873 13.1742 15.599 12.5669 15.7318C11.9588 15.8653 11.7425 16.2635 11.5253 16.5742C11.3081 16.885 11.2394 17.3968 11.0041 17.5939C10.8754 17.7012 10.7009 17.6829 10.5706 17.5939C10.4395 17.5049 10.3968 17.373 10.4395 17.1067C10.4837 16.8405 10.5271 16.6187 10.5706 16.397C10.614 16.1752 10.614 15.6427 10.5271 15.3328C10.4395 15.0228 10.1797 14.6239 9.96252 14.4458C9.58189 14.1343 9.11045 13.8911 8.61768 14.3568C8.36893 14.5929 6.57634 17.6535 5.96987 18.7471C5.58687 19.437 5.05857 20.6092 5.01513 20.9192C4.9717 21.2299 5.01513 21.5844 5.2323 21.8507C5.44946 22.1169 5.83957 22.2933 6.18703 22.3824C6.59846 22.4698 6.88511 22.3458 7.22941 22.4269C7.56345 22.5167 7.39446 22.8854 7.26416 23.1517C7.09596 23.4028 6.8551 23.4171 6.70822 23.6246C6.43578 24.0084 6.7556 24.2111 6.87642 24.4114C7.03515 24.6713 6.90801 24.8358 6.70822 25.2642C6.39156 25.9429 6.79509 26.4293 6.98303 26.8163C7.17256 27.2082 7.08964 28.0991 6.82431 28.6745C6.77219 28.7866 6.53449 29.3548 6.44763 29.7427C6.17676 30.694 7.19467 31.9052 7.92355 32.27C8.92645 32.7731 12.8709 32.359 15.6475 32.181C18.4256 32.0038 19.5106 30.9404 20.1613 29.8762C20.812 28.812 20.6817 27.5261 20.6817 27.1708C20.6817 26.8163 20.5775 26.2441 20.508 25.9302C19.971 23.4974 20.9676 20.3104 21.2898 19.8995C21.319 19.8407 21.5069 19.7811 21.6364 19.944C22.2927 21.0607 23.1139 21.9166 23.7599 22.4682C23.7568 24.8151 23.7354 43.5001 23.7339 44.9974C23.7339 44.999 23.7962 45.0069 24.1042 44.9839C24.2511 44.9735 24.4446 44.9704 24.6404 44.9537C24.8228 44.9386 25.0226 44.9259 25.2074 44.9068C25.4546 44.8821 25.6828 44.8591 25.8621 44.8345C26.3106 44.7725 26.3588 44.7772 26.3588 44.7661V44.6239C26.3556 37.9439 26.3698 25.691 26.3714 24.4646C27.6096 25.3365 28.6244 25.9747 28.6244 25.9747L28.7089 26.0256V44.2805L29.0619 44.1836L29.5262 44.0461L29.8863 43.9316L30.2803 43.7981L30.6807 43.6542L31.1648 43.4683V2.53787L30.6215 2.33044ZM16.6212 44.1462C15.5472 43.8466 14.6027 43.2783 14.6027 43.2783C14.6027 43.2783 14.887 43.659 15.2747 43.0097C15.6159 42.4382 15.1697 40.7629 14.7575 39.9721C14.4614 39.403 13.5351 38.5781 13.2831 37.6991C13.0644 36.9305 13.1189 36.3337 12.7888 35.7439C12.3055 34.88 11.6619 33.9851 13.3116 33.8437C15.5859 33.6489 18.0094 33.6259 19.2161 34.1139C20.1234 34.4803 20.219 35.6057 20.388 36.3035C20.5877 37.1268 21.0655 39.1169 20.4172 41.1189C19.7807 43.0852 19.0644 43.051 18.7612 44.1502C18.7233 44.2877 18.807 44.3822 18.8639 44.4347C19.025 44.5849 19.0415 44.5929 19.1592 44.658L16.6212 44.1462Z"
        fill="#FEFEFE" />
    <mask id="mask1" mask-type="alpha" maskUnits="userSpaceOnUse" x="0" y="0" width="46" height="46">
        <path fill-rule="evenodd" clip-rule="evenodd" d="M0.70047 0.559692H45.6337V45.4916H0.70047V0.559692Z"
            fill="white" />
    </mask>
    <g mask="url(#mask1)">
        <path fill-rule="evenodd" clip-rule="evenodd"
            d="M23.1667 1.31473C11.1893 1.31473 1.44519 11.054 1.44519 23.0251C1.44519 34.997 11.1893 44.7363 23.1667 44.7363C35.145 44.7363 44.889 34.997 44.889 23.0251C44.889 11.054 35.145 1.31473 23.1667 1.31473ZM23.1667 45.4922C10.7792 45.4922 0.70047 35.4134 0.70047 23.0251C0.70047 10.6377 10.7792 0.559692 23.1667 0.559692C35.555 0.559692 45.6337 10.6377 45.6337 23.0251C45.6337 35.4134 35.555 45.4922 23.1667 45.4922Z"
            fill="#FEFEFE" />
    </g>
</svg>
